<?xml version="1.0" encoding="UTF-8"?>
<svg width="104px" height="40px" viewBox="0 0 104 40" version="1.1" xmlns="http://www.w3.org/2000/svg" xmlns:xlink="http://www.w3.org/1999/xlink">
    <!-- Generator: Sketch 49.2 (51160) - http://www.bohemiancoding.com/sketch -->
    <title>logo/brj/brjlogowithtext/white@1x</title>
    <desc>Created with Sketch.</desc>
    <defs></defs>
    <g id="logo/brj/brjlogowithtext/white" stroke="none" stroke-width="1" fill="none" fill-rule="evenodd">
        <g id="Group" transform="translate(45.000000, 9.000000)" fill="#FFFFFF">
            <path d="M14.4749242,5.52224242 C13.2258333,5.52224242 12.2518939,5.88209091 11.8284091,6.17830303 L11.8284091,7.91466667 C12.1038636,7.70284848 12.8870455,7.42754545 13.3949242,7.42754545 C14.3900758,7.42754545 14.9406818,7.87209091 14.9406818,9.29057576 L14.9406818,16.3195152 L17.9047727,16.3195152 L17.9047727,9.29057576 C17.9047727,7.11012121 16.867197,5.52224242 14.4749242,5.52224242" id="Fill-6"></path>
            <path d="M27.1199242,11.1324545 C27.1199242,13.2500303 25.8708333,14.6897273 24.5368939,14.6897273 C23.3937121,14.6897273 22.7797727,14.2024545 22.7797727,12.5936667 L22.7797727,5.73381818 L19.9214394,5.73381818 L19.9214394,12.4874545 C19.9214394,14.8377576 20.7685606,16.5948788 23.5841667,16.5948788 C25.1723485,16.5948788 26.5059848,15.8326061 27.1199242,14.647 L27.1199242,16.3195758 L29.9779545,16.3195758 L29.9779545,5.73381818 L27.1199242,5.73381818 L27.1199242,11.1324545 Z" id="Fill-8"></path>
            <path d="M8.37184848,0.589424242 L6.61457576,0.589424242 L6.61457576,2.28290909 L7.52472727,2.28290909 C7.927,2.28290909 8.05427273,2.45230303 8.05427273,2.79093939 C8.05427273,3.10866667 7.71548485,3.4050303 7.33442424,3.57427273 L7.33442424,4.46351515 L13.0756364,4.46351515 L13.0756364,2.45230303 L9.79078788,2.45230303 C9.93321212,2.23306061 10.0230606,1.97593939 10.0230606,1.6689697 C10.0230606,0.864272727 9.5150303,0.589424242 8.37184848,0.589424242" id="Fill-10"></path>
            <path d="M7.3344697,12.6356212 C7.3344697,13.8850152 6.59325758,14.6895606 5.1325,14.6895606 C3.67174242,14.6895606 2.93083333,13.8850152 2.93083333,12.6356212 L2.93083333,5.73380303 L0.0725,5.73380303 L0.0725,12.3180455 C0.0725,15.1974394 1.89325758,16.5948636 5.1325,16.5948636 C8.37189394,16.5948636 10.1925,15.1974394 10.1925,12.3180455 L10.1925,5.73380303 L7.3344697,5.73380303 L7.3344697,12.6356212 Z" id="Fill-12"></path>
            <path d="M37.2791364,19.4742121 C37.2791364,19.7705758 37.0888333,19.8973939 36.8133788,19.8973939 C36.6017121,19.8973939 36.4536818,19.8340606 36.3689848,19.7493636 L36.3689848,17.5898182 L33.1045909,17.5898182 L33.1045909,19.1775455 L34.1035303,19.1775455 L34.1035303,20.5537576 C34.5691364,21.083 35.4583788,21.5066364 36.8345909,21.5066364 C38.5283788,21.5066364 39.5659545,20.8502727 39.5659545,19.3895152 L39.5659545,17.5898182 L37.2791364,17.5898182 L37.2791364,19.4742121 Z" id="Fill-14"></path>
            <path d="M37.4063788,10.0742121 C35.3524394,9.35436364 34.6328939,9.03663636 34.6328939,8.40163636 C34.6328939,7.61815152 35.4372879,7.42754545 36.4536515,7.42754545 C37.6604697,7.42754545 38.888197,7.89330303 39.5659242,8.38027273 L39.5659242,6.36906061 C38.888197,5.88209091 37.3850152,5.52239394 36.0301667,5.52239394 C33.2780455,5.52239394 31.7745606,6.58042424 31.7745606,8.50739394 C31.7745606,10.328 32.8757727,11.0054242 34.9292576,11.7252727 C36.6230455,12.3181515 36.9828939,12.6781515 36.9828939,13.4402727 C36.9828939,14.2873939 36.2630455,14.6895152 35.0774394,14.6895152 C33.8071364,14.6895152 32.8757727,14.2237576 31.8169848,13.6096667 L31.8169848,15.5998182 C32.4097121,16.023303 33.7227424,16.5314848 35.3951667,16.5314848 C38.1050152,16.5314848 40.0316818,15.3669394 40.0316818,13.1649697 C40.0316818,11.2807273 39.0998636,10.6669394 37.4063788,10.0742121" id="Fill-16"></path>
            <path d="M46.7640758,3.48966667 C46.7640758,1.69512121 45.4957424,0.335272727 42.7646818,0.335272727 C41.536803,0.335272727 40.5184697,0.65269697 39.5658939,1.22436364 L39.5658939,2.45224242 L36.2810455,2.45224242 C36.4233182,2.233 36.5133182,1.9760303 36.5133182,1.66890909 C36.5133182,0.864363636 36.0051364,0.589363636 34.861803,0.589363636 L33.1048333,0.589363636 L33.1048333,2.28284848 L34.0149848,2.28284848 C34.4172576,2.28284848 34.5445303,2.45224242 34.5445303,2.7910303 C34.5445303,3.10860606 34.2055909,3.40481818 33.8246818,3.57451515 L33.8246818,4.46360606 L39.5658939,4.46360606 L39.5658939,3.10663636 C40.3875606,2.73769697 41.1496818,2.45224242 42.0007424,2.45224242 C43.2495303,2.45224242 43.906197,3.06648485 43.906197,3.97663636 C43.906197,5.77633333 41.6616515,6.19951515 41.6616515,8.71921212 L41.6616515,16.3195152 L42.3607424,16.3195152 L44.5196818,16.3195152 L46.2560455,16.3195152 L46.2560455,14.5201212 L44.5196818,14.5201212 L44.5196818,8.74012121 C44.5196818,6.53845455 46.7640758,6.45360606 46.7640758,3.48966667" id="Fill-18"></path>
            <path d="M50.8079242,5.52224242 C49.4738333,5.52224242 48.3097424,5.88209091 47.4206515,6.36890909 L47.4206515,8.38027273 C48.4155,7.78739394 49.495197,7.42754545 50.7655,7.42754545 C52.6495909,7.42754545 53.7083788,8.52845455 53.7083788,10.6455758 C53.7083788,12.6993636 52.9886818,14.4143636 51.8876212,14.4143636 L51.3583788,14.4143636 L50.5536818,11.4714848 C50.3630758,10.772697 49.8339848,10.2645152 49.1565606,10.2645152 L47.2088333,10.2645152 L47.2088333,12.1699697 L48.2670152,12.1699697 L49.4105,16.3195152 L51.8876212,16.3195152 C54.7033788,16.3195152 56.5664091,13.9270909 56.5664091,10.5611818 C56.5664091,7.21572727 54.385803,5.52224242 50.8079242,5.52224242" id="Fill-20"></path>
            <path d="M58.514197,5.73383333 L58.2423788,6.41928788 L57.9646515,5.73383333 L57.6685909,5.73383333 L57.6685909,6.73943939 L57.8982879,6.73943939 L57.8982879,6.18989394 C57.8982879,6.16580303 57.8951061,6.08716667 57.8951061,6.08110606 C57.8982879,6.09640909 57.919197,6.16580303 57.9313182,6.18989394 L58.1488939,6.73943939 L58.3211667,6.73943939 L58.5416212,6.18989394 C58.5537424,6.16580303 58.5716212,6.09034848 58.5745,6.08110606 C58.5745,6.08716667 58.5716212,6.16580303 58.5716212,6.18989394 L58.5716212,6.73943939 L58.8073788,6.73943939 L58.8073788,5.73383333 L58.514197,5.73383333 Z" id="Fill-22"></path>
            <polygon id="Fill-25" points="56.5663939 5.93328788 56.8895758 5.93328788 56.8895758 6.73934848 57.1582121 6.73934848 57.1582121 5.93328788 57.4845758 5.93328788 57.4845758 5.73389394 56.5663939 5.73389394"></polygon>
        </g>
        <g id="LOGO/BRJ">
            <path d="M19.9998911,0 C8.95432058,0 0,8.95427184 0,20 C0,31.0457282 8.95432058,40 19.9998911,40 C31.0456794,40 40,31.0457282 40,20 C40,8.95427184 31.0456794,0 19.9998911,0 Z" id="Fill-1" fill="#FFFFFF"></path>
            <path d="M31.9656522,15 L26.64,15 C24.6428261,15 22.8217391,15.8763243 21.0419565,17.6047568 L17.276087,21.3502703 C16.2169565,22.4036757 14.6571739,23.2763243 13.3256522,23.2763243 L10.6628261,23.2763243 L10.6628261,17.3174054 L13.3256522,17.3174054 C14.6571739,17.3174054 16.2169565,18.1900541 17.276087,19.2434595 L18.9236957,17.6047568 C17.143913,15.8763243 15.3228261,15 13.3256522,15 L8,15 L8,25.5939459 L13.3256522,25.5939459 C15.3228261,25.5939459 17.143913,24.7174054 18.9236957,22.988973 C18.9236957,22.988973 21.6304348,20.2968649 22.6895652,19.2434595 C23.7486957,18.1900541 25.3084783,17.3174054 26.64,17.3174054 L29.3028261,17.3174054 L29.3028261,23.2763243 L26.64,23.2763243 C25.3084783,23.2763243 23.7486957,22.4036757 22.6895652,21.3502703 L21.0419565,22.988973 C22.8217391,24.7174054 24.6428261,25.5939459 26.64,25.5939459 L31.9656522,25.5939459 L31.9656522,15 Z" id="Fill-4" fill="#000000"></path>
        </g>
    </g>
</svg>